<svg xmlns="http://www.w3.org/2000/svg" viewBox="0 0 64 64"><g data-name="Ai-robotics-brain-technology-artificial intelligence"><circle cx="22" cy="6" r="3" fill="#f6cc4f"/><circle cx="6" cy="18" r="3" fill="#f6cc4f"/><circle cx="6" cy="32" r="3" fill="#f6cc4f"/><circle cx="6" cy="46" r="3" fill="#f6cc4f"/><path fill="#ec455a" d="M19.41,21A5,5,0,0,1,29,23V41a5,5,0,0,1-9.59,2A5.106,5.106,0,0,1,19,41a4.662,4.662,0,0,1,.13-1.13A4.662,4.662,0,0,1,18,40a5,5,0,0,1-5-5,5.031,5.031,0,0,1,2.71-4.44A4.946,4.946,0,0,1,15,28a5,5,0,0,1,4.01-4.9A.34.34,0,0,1,19,23,5.106,5.106,0,0,1,19.41,21Z"/><circle cx="22" cy="58" r="3" fill="#f6cc4f"/><circle cx="42" cy="58" r="3" fill="#f6cc4f"/><circle cx="58" cy="46" r="3" fill="#f6cc4f"/><circle cx="58" cy="32" r="3" fill="#f6cc4f"/><path fill="#ec455a" d="M44.99,23.1A5,5,0,0,1,49,28a4.946,4.946,0,0,1-.71,2.56A5.031,5.031,0,0,1,51,35a5,5,0,0,1-5,5,4.662,4.662,0,0,1-1.13-.13A4.662,4.662,0,0,1,45,41a5.106,5.106,0,0,1-.41,2A5,5,0,0,1,35,41V23a5,5,0,0,1,9.59-2A5.106,5.106,0,0,1,45,23,.34.34,0,0,1,44.99,23.1Z"/><circle cx="58" cy="18" r="3" fill="#f6cc4f"/><circle cx="42" cy="6" r="3" fill="#f6cc4f"/><path d="M58 36a4 4 0 1 0-3.86-5H50.46a5.711 5.711 0 0 0-.89-.81A5.853 5.853 0 0 0 50 28a6 6 0 0 0-4.04-5.65c-.01-.12-.03-.23-.05-.35H50a1 1 0 0 0 .83-.45L52.54 19h1.6a4 4 0 1 0 0-2H52a1 1 0 0 0-.83.45L49.46 20H45.19A6 6 0 0 0 40 17V14.54l2.55-1.71A1 1 0 0 0 43 12V9.86a4 4 0 1 0-2 0v1.6l-2.55 1.71A1 1 0 0 0 38 14v3.35A6 6 0 0 0 34 23V41a6 6 0 0 0 4 5.65V50a1 1 0 0 0 .45.83L41 52.54v1.6a4 4 0 1 0 2 0V52a1 1 0 0 0-.45-.83L40 49.46V47a6 6 0 0 0 5.19-3h4.27l1.71 2.55A1 1 0 0 0 52 47h2.14a4 4 0 1 0 0-2h-1.6l-1.71-2.55A1 1 0 0 0 50 42H45.91A6.638 6.638 0 0 0 46 41a6 6 0 0 0 6-6 5.809 5.809 0 0 0-.36-2h2.5A4 4 0 0 0 58 36zm0-6a2 2 0 1 1-2 2A2.006 2.006 0 0 1 58 30zm0-14a2 2 0 1 1-2 2A2.006 2.006 0 0 1 58 16zM40 6a2 2 0 1 1 2 2A2.006 2.006 0 0 1 40 6zm4 52a2 2 0 1 1-2-2A2.006 2.006 0 0 1 44 58zM58 44a2 2 0 1 1-2 2A2.006 2.006 0 0 1 58 44zM46 39c-.13 0-.24-.03-.37-.04A5.986 5.986 0 0 0 40 35v2a4 4 0 1 1-4 4V23a4 4 0 1 1 4 4v2a6 6 0 0 0 5.81-4.55 3.942 3.942 0 0 1 1.97 4.83A5.915 5.915 0 0 0 46 29v2a3.872 3.872 0 0 1 1.83.45A4 4 0 0 1 46 39zM26 17.35V14a1 1 0 0 0-.445-.832L23 11.465V9.858a4 4 0 1 0-2 0V12a1 1 0 0 0 .445.832L24 14.535V17a6 6 0 0 0-5.188 3H14.535l-1.7-2.555A1 1 0 0 0 12 17H9.858a4 4 0 1 0 0 2h1.607l1.7 2.555A1 1 0 0 0 14 22h4.09c-.019.115-.04.23-.053.348a5.947 5.947 0 0 0-3.61 7.845 5.99 5.99 0 0 0-.882.807H9.858a4 4 0 1 0 0 2h2.5A5.969 5.969 0 0 0 18 41a6 6 0 0 0 .09 1H14a1 1 0 0 0-.832.445L11.465 45H9.858a4 4 0 1 0 0 2H12a1 1 0 0 0 .832-.445L14.535 44h4.277A6 6 0 0 0 24 47v2.465l-2.555 1.7A1 1 0 0 0 21 52v2.142a4 4 0 1 0 2 0V52.535l2.555-1.7A1 1 0 0 0 26 50V46.65A6 6 0 0 0 30 41V23A6 6 0 0 0 26 17.35zM20 6a2 2 0 1 1 2 2A2 2 0 0 1 20 6zM6 20a2 2 0 1 1 2-2A2 2 0 0 1 6 20zM6 34a2 2 0 1 1 2-2A2 2 0 0 1 6 34zM6 48a2 2 0 1 1 2-2A2 2 0 0 1 6 48zM24 58a2 2 0 1 1-2-2A2 2 0 0 1 24 58zm4-17a4 4 0 1 1-4-4V35a6 6 0 0 0-5.635 3.959c-.124.011-.232.041-.365.041a4 4 0 0 1-1.822-7.556A3.9 3.9 0 0 1 18 31V29a5.98 5.98 0 0 0-1.78.281A3.909 3.909 0 0 1 16 28a4 4 0 0 1 2.185-3.547A6.006 6.006 0 0 0 24 29V27a4 4 0 1 1 4-4z"/></g></svg>