<svg xmlns="http://www.w3.org/2000/svg" data-name="Layer 1" viewBox="0 0 128 128"><path d="M119.202,65.80859l2.4248-5.30664a2.00038,2.00038,0,0,0,.18066-.83105l-.002-11.083c-.627-15.11377-6.79694-27.8335-17.84387-36.78418A54.87662,54.87662,0,0,0,67.26508.04248C67.21918.04053,43.44855,0,43.00024,0A43.3517,43.3517,0,0,0,10.81866,72.00293c1.00446,1.1391,2.00848,2.2226,2.97943,3.27039,4.87573,5.26147,8.73138,9.42212,9.10889,16.41327V98a4.00009,4.00009,0,0,0,4.00006,4H59.0592a3.98422,3.98422,0,0,0,.90485-.11188C65.70813,119.29413,95.75464,128,103.41473,128a10.0751,10.0751,0,0,0,5.14069-1.41553,10.55519,10.55519,0,0,0,5.12793-9.07031v-4.17383l3.30865-2.61865a2.00032,2.00032,0,0,0,.38574-2.73193l-2.51178-3.51221,3.99518-1.38818a2.00007,2.00007,0,0,0,1.23926-2.52783l-2.11914-6.28906h5.80566a4.20057,4.20057,0,0,0,3.45123-1.82275,4.314,4.314,0,0,0,.48242-3.9751ZM59.09351,91.58374h-.0343V98H26.907V91.58356c-.49847-10.099-6.94324-15.25757-13.0882-22.2262A39.35179,39.35179,0,0,1,43.00024,4c.40723,0,.81824.00635,1.22839.019A39.35642,39.35642,0,0,1,72.1817,69.35754C66.213,76.126,59.5744,81.83923,59.09351,91.58374Zm64.85162-1.406a.17952.17952,0,0,1-.1582.09473H115.197a2.00049,2.00049,0,0,0-1.89551,2.63867l2.375,7.0498-4.64941,1.61572a1.99978,1.99978,0,0,0-.9707,3.05273l2.959,4.1377-2.57324,2.03711a1.99953,1.99953,0,0,0-.75879,1.56836v5.1416a6.54083,6.54083,0,0,1-3.16705,5.62891A6.07673,6.07673,0,0,1,103.41473,124c-8.19934,0-39.124-10.10638-40.35547-26.96674V92.106q.02124-.16049.02942-.32507c.34131-6.91492,4.57159-11.53168,9.46991-16.8775.85919-.93768,1.74762-1.90729,2.62323-2.90027A43.4022,43.4022,0,0,0,61.10364,4.06622c2.42511.002,6.19659-.01886,6.28644-.02765,24.09-.90137,49.14978,14.14355,50.41736,44.63232V59.23584l-2.5899,5.667a2.00093,2.00093,0,0,0-.05273,1.53467l8.81354,23.4502A.3001.3001,0,0,1,123.94513,90.17773Z"/><path d="M59.00037 108a2.0001 2.0001 0 0 0-2-2H29.00018a2 2 0 1 0 0 4H57.00037A2.0001 2.0001 0 0 0 59.00037 108zM33.00024 114a2 2 0 1 0 0 4H53.00037a2 2 0 1 0 0-4zM43.00031 13A30 30 0 1 0 73.00049 43 30.03419 30.03419 0 0 0 43.00031 13zm0 56A26 26 0 1 1 69.00043 43 26.02924 26.02924 0 0 1 43.00031 69z"/><path d="M63.00043,41a2.0001,2.0001,0,0,0-2,2A18.00012,18.00012,0,1,1,43.00031,25a2,2,0,0,0,0-4A22,22,0,1,0,65.00043,43,2.0001,2.0001,0,0,0,63.00043,41Z"/><path d="M29.00018,43A14.00009,14.00009,0,1,0,43.00031,29,14.01579,14.01579,0,0,0,29.00018,43Zm24.00018,0A10.00006,10.00006,0,1,1,43.00031,33,10.01151,10.01151,0,0,1,53.00037,43Z"/><path d="M37.00024,43a2,2,0,0,0,4,0,2,2,0,1,1,2.00006,2,2,2,0,1,0,0,4,6,6,0,1,0-6.00006-6Z"/></svg>